<?xml version="1.0" standalone="no"?><!DOCTYPE svg PUBLIC "-//W3C//DTD SVG 1.1//EN" "http://www.w3.org/Graphics/SVG/1.1/DTD/svg11.dtd"><svg class="icon" width="562.50px" height="200.00px" viewBox="0 0 2880 1024" version="1.1" xmlns="http://www.w3.org/2000/svg"><path fill="#027AFF" d="M 941.0282 645.0451 c 88.6931 -161.2648 120.9466 -314.4572 120.9466 -314.4572 l -16.1292 0 l 0 0 l -137.0695 0 l -145.1341 0 l 0 -112.8884 l 354.7738 0 l 0 -48.3749 L 763.6421 169.3247 L 763.6421 0 L 602.3836 0 l 0 169.3247 l -322.5202 0 l 0 48.3749 l 322.5202 0 l 0 112.8884 L 328.2398 330.5879 l 0 48.3765 l 556.3489 0 c 0 8.0646 0 8.0646 -8.0646 16.1229 c 0 56.441 -40.3119 137.0742 -72.5639 201.5751 C 392.7454 435.4023 271.7972 532.1615 239.5452 548.2843 C -34.5938 741.7949 223.4239 983.6897 263.7405 975.6252 c 290.2697 64.504 475.7141 -56.441 604.7254 -209.6413 c 8.0583 8.0662 16.1229 8.0662 24.1874 8.0662 c 88.6931 48.3749 516.0323 249.95 516.0323 249.95 L 1408.6856 782.1146 C 1344.1784 782.1146 1110.3513 701.483 941.0282 645.0451 L 941.0282 645.0451 z M 731.3901 717.609 c -201.5751 258.0162 -443.4605 177.3861 -483.7787 161.2554 c -96.7513 -24.1874 -129.0049 -201.5751 -8.0646 -258.0162 c 201.5751 -64.4993 378.9628 8.0646 507.9724 72.5702 C 739.4531 709.5444 731.3901 717.609 731.3901 717.609 L 731.3901 717.609 z M 731.3901 717.609"  /><path fill="#1AAD19" d="M 2066.3736 644.7333 c -67.5765 36.9912 -77.6053 -20.7665 -77.6053 -20.7665 l -84.6675 -194.1446 c -32.5806 -92.2548 28.1963 -41.6118 28.1963 -41.6118 s 52.1657 38.7764 91.7297 62.4046 c 39.564 23.6281 84.6675 6.9309 84.6675 6.9309 l 553.6075 -251.0359 C 2560.1493 81.6484 2391.4181 0 2200.3976 0 C 1888.6636 0 1636 217.2739 1636 485.2959 c 0 154.1605 83.6699 291.3875 213.9922 380.3081 l -23.4969 132.7377 s -11.4465 38.7764 28.2488 20.7928 c 27.0674 -12.2604 96.0353 -56.1825 137.0958 -82.8823 a 643.4732 643.4732 0 0 0 208.6103 34.3921 c 311.7078 0 564.4502 -217.3002 564.4502 -485.3221 c 0 -77.6316 -21.2653 -150.9576 -59.0179 -216.0138 c -176.3972 104.2264 -586.6344 346.5199 -639.5351 375.425 z"  /></svg>