<?xml version="1.0" standalone="no"?>
<!DOCTYPE svg PUBLIC "-//W3C//DTD SVG 1.1//EN" "http://www.w3.org/Graphics/SVG/1.1/DTD/svg11.dtd">
<svg class="icon" width="926.953125px" height="200.00px" viewBox="0 0 4746 1024" version="1.1" xmlns="http://www.w3.org/2000/svg">
<g>
<path fill="#E21836" d="m436.40891,0l408.36635,0c57.00429,0 92.459,46.46337 79.161,103.6568l-190.12374,816.27483c-13.41742,56.99431 -70.49138,103.4975 -127.53543,103.4975l-408.32659,0c-56.92464,0 -92.45894,-46.50319 -79.16094,-103.4975l190.20333,-816.27483c13.29801,-57.19344 70.34206,-103.6568 127.41602,-103.6568"/>
<path fill="#00447C" d="m810.79565,0l469.61089,0c56.99431,0 31.29412,46.46337 17.88663,103.6568l-190.0939,816.27483c-13.33783,56.99431 -9.17718,103.4975 -66.29096,103.4975l-469.61082,0c-57.11378,0 -92.459,-46.50319 -79.04159,-103.4975l190.08391,-816.27483c13.49707,-57.19344 70.42171,-103.6568 127.45585,-103.6568"/>
<path fill="#007B84" d="m1261.77935,0l408.36635,0c57.08388,0 92.53859,46.46337 79.1311,103.6568l-190.09384,816.27483c-13.41742,56.99431 -70.5312,103.4975 -127.60516,103.4975l-408.17721,0c-57.11378,0 -92.53866,-46.50319 -79.161,-103.4975l190.12374,-816.27483c13.29801,-57.19344 70.30224,-103.6568 127.41602,-103.6568"/>
<path fill="#FEFEFE" d="m543.05976,261.59252c-41.99422,0.42803 -54.39647,0 -58.35799,-0.93559c-1.52286,7.23621 -29.86077,137.95688 -29.94043,138.06637c-6.10156,26.4467 -10.54086,45.29881 -25.62053,57.47209c-8.56013,7.07697 -18.55355,10.49105 -30.13949,10.49105c-18.62321,0 -29.47263,-9.24684 -31.29412,-26.78509l-0.34838,-6.02197c0,0 5.67352,-35.42481 5.67352,-35.62394c0,0 29.74136,-119.12468 35.06657,-134.87127c0.27865,-0.89583 0.3583,-1.36362 0.42797,-1.79165c-57.89013,0.50768 -68.15228,0 -68.85896,-0.93559c-0.38821,1.28397 -1.82155,8.66956 -1.82155,8.66956l-30.36839,134.26409l-2.60789,11.38694l-5.04643,37.24636c0,11.04848 2.16987,20.06649 6.4897,27.6909c13.83553,24.17732 53.30158,27.80046 75.62744,27.80046c28.76595,0 55.75016,-6.11155 73.98517,-17.26952c31.65243,-18.7028 39.93384,-47.93654 47.31937,-73.91544l3.42407,-13.32784c0,0 30.63719,-123.72329 35.84292,-139.81826c0.19907,-0.89583 0.27865,-1.36362 0.54745,-1.79165l-0.00002,-0.00001zm104.24107,99.80874c-7.38559,0 -20.88266,1.79165 -33.00612,7.73397c-4.39954,2.25945 -8.56013,4.86727 -12.94969,7.46518l3.96159,-14.30332l-2.16993,-2.40876c-25.71011,5.20573 -31.46329,5.90249 -55.21258,9.24691l-1.99072,1.32379c-2.75714,22.86345 -5.20573,40.05332 -15.42811,84.99383c-3.89186,16.56277 -7.93304,33.28484 -11.98414,49.80778l1.09489,2.10021c24.33656,-1.28397 31.72215,-1.28397 52.87354,-0.93559l1.712,-1.86138c2.68748,-13.7658 3.03586,-16.99074 8.9881,-44.87078c2.79697,-13.21842 8.6298,-42.26302 11.50635,-52.60481c5.28538,-2.44859 10.5011,-4.85735 15.47786,-4.85735c11.85473,0 10.41146,10.3418 9.95359,14.46262c-0.50762,6.91773 -4.82745,29.51239 -9.25683,48.91196l-2.95621,12.52166c-2.06038,9.24684 -4.31989,18.23494 -6.38027,27.40226l0.89583,1.83141c23.98818,-1.28397 31.30411,-1.28397 51.78858,-0.93559l2.40876,-1.86138c3.70278,-21.49977 4.78769,-27.25295 11.3571,-58.55699l3.30459,-14.38297c6.42004,-28.14877 9.64504,-42.42226 4.78769,-54.04802c-5.13607,-13.02928 -17.45866,-16.17463 -28.77587,-16.17463l0,-0.00001zm116.44917,29.47161c-12.75056,2.44859 -20.88266,4.081 -28.96501,5.13607c-8.01262,1.28403 -15.82625,2.44859 -28.14877,4.16059l-0.97548,0.8859l-0.89583,0.70669c-1.28397,9.17724 -2.1798,17.11028 -3.88187,26.43677c-1.44327,9.64504 -3.66296,20.60394 -7.2761,36.35054c-2.79697,12.0538 -4.24024,16.25421 -5.83276,20.49445c-1.55283,4.24024 -3.26483,8.36107 -6.41018,20.2158l0.73659,1.09489l0.61711,1.00532c11.51634,-0.54745 19.05118,-0.93565 26.79514,-1.00532c7.73391,-0.27872 15.74659,0 28.14877,0.06966l1.0849,-0.88584l1.16462,-0.97548c1.79159,-10.69018 2.06038,-13.56673 3.15527,-18.78245c1.0849,-5.59394 2.95621,-13.33783 7.54483,-34.02143c2.16987,-9.7147 4.58862,-19.39956 6.83808,-29.31333c2.33916,-9.87394 4.78769,-19.59863 7.11686,-29.31333l-0.34838,-1.17454l-0.46779,-1.08497l0,0.00001zm0.27167,-39.73676c-11.58594,-6.83808 -31.92116,-4.66821 -45.60737,4.77776c-13.64639,9.25683 -15.19915,22.3956 -3.65297,29.32332c11.38694,6.649 31.80174,4.66821 45.36854,-4.85735c13.61648,-9.45596 15.31856,-22.47525 3.8918,-29.24373zm70.0684,158.36675c23.44074,0 47.46875,-6.45986 65.55438,-25.63052c13.91518,-15.54753 20.29539,-38.67965 22.50515,-48.20527c7.19645,-31.57284 1.59252,-46.31412 -5.44462,-55.29223c-10.69018,-13.68621 -29.58212,-18.07577 -49.18075,-18.07577c-11.78507,0 -39.85425,1.16456 -61.78199,21.38036c-15.74659,14.58204 -23.02269,34.36981 -27.41225,53.34134c-4.42932,19.3299 -9.52556,54.12767 22.47525,67.0773c9.874,4.24024 24.1076,5.4048 33.28484,5.4048l-0.00001,-0.00001zm-1.83148,-71.03882c5.4048,-23.90853 11.78507,-43.97502 28.06918,-43.97502c12.76048,0 13.68621,14.93042 8.01262,38.9186c-1.01524,5.32514 -5.67352,25.1229 -11.97415,33.55357c-4.39954,6.22097 -9.60527,9.99342 -15.35845,9.99342c-1.712,0 -11.89456,0 -12.0538,-15.1195c-0.07959,-7.46524 1.44327,-15.08966 3.30459,-23.37107l0.00001,0zm148.48782,67.96416l1.83148,-1.86132c2.5979,-13.7658 3.02587,-17.00072 8.77905,-44.87084c2.87662,-13.21835 8.82886,-42.26295 11.62583,-52.60475c5.29531,-2.45858 10.42139,-4.86734 15.55745,-4.86734c11.77508,0 10.3418,10.3418 9.874,14.46262c-0.42803,6.92766 -4.74786,29.51239 -9.25689,48.91196l-2.7969,12.52166c-2.14003,9.25683 -4.46921,18.23501 -6.52959,27.41219l0.89583,1.83148c24.06777,-1.28403 31.10498,-1.28403 51.70892,-0.93565l2.48841,-1.86132c3.61314,-21.50969 4.58862,-27.26293 11.35704,-58.55699l3.225,-14.39296c6.44994,-28.14877 9.7147,-42.41227 4.937,-54.0381c-5.28538,-13.02921 -17.68756,-16.17456 -28.84553,-16.17456c-7.39558,0 -20.96231,1.78166 -33.01611,7.73397c-4.3099,2.25945 -8.6298,4.85735 -12.87004,7.46518l3.69279,-14.30332l-1.98073,-2.41875c-25.70018,5.21572 -31.57284,5.91248 -55.29229,9.25689l-1.82149,1.32379c-2.87656,22.86339 -5.21565,40.04333 -15.43804,84.99376c-3.89186,16.56283 -7.93297,33.28484 -11.97415,49.80785l1.0849,2.10021c24.37639,-1.28403 31.65249,-1.28403 52.76405,-0.93565l0.00001,-0.00001zm176.83067,0.93066c1.51294,-7.38553 10.50104,-51.16148 10.58069,-51.16148c0,0 7.65432,-32.12028 8.12218,-33.28484c0,0 2.40876,-3.34441 4.81752,-4.66827l3.54348,0c33.43415,0 71.18814,0 100.78018,-21.7685c20.13615,-14.93042 33.90195,-36.97763 40.04333,-63.77271c1.59259,-6.56935 2.76713,-14.38297 2.76713,-22.19653c0,-10.26215 -2.06045,-20.41487 -8.01269,-28.34784c-15.08966,-21.11163 -45.13957,-21.49977 -79.82786,-21.65907c-0.10949,0 -17.10029,0.1593 -17.10029,0.1593c-44.40299,0.54745 -62.21002,0.38814 -69.52589,-0.50768c-0.61711,3.23493 -1.78173,8.9881 -1.78173,8.9881c0,0 -15.90583,73.71638 -15.90583,73.83586c0,0 -38.06254,156.72935 -39.85419,164.11494c38.76922,-0.46779 54.66513,-0.46779 61.35396,0.26873l0.00001,-0.00001zm29.47263,-130.94958c0,0 16.91115,-73.567 16.83156,-73.28835l0.54738,-3.77238l0.23889,-2.87662l6.75849,0.69676c0,0 34.87743,2.99603 35.69367,3.07569c13.7658,5.32514 19.43932,19.05118 15.4778,36.96765c-3.61314,16.37369 -14.23359,30.13949 -27.87998,36.78849c-11.23762,5.63376 -25.00349,6.10156 -39.18733,6.10156l-9.17724,0l0.69676,-3.69279l0,-0.00001zm105.29319,63.41742c-4.46921,19.05118 -9.60527,53.84896 22.23629,66.25114c10.15266,4.31989 19.25025,5.60386 28.49715,5.13607c9.76451,-0.52753 18.81235,-5.42471 27.19327,-12.47184c-0.7565,2.89647 -1.51294,5.793 -2.26944,8.69946l1.44327,1.86132c22.90322,-0.96549 30.01009,-0.96549 54.82444,-0.77641l2.24952,-1.712c3.62313,-21.3007 7.03721,-41.9843 16.45328,-82.73432c4.58862,-19.51904 9.16725,-38.84894 13.87535,-58.28833l-0.73659,-2.13997c-25.6206,4.74786 -32.46867,5.7631 -57.11378,9.25683l-1.87124,1.52286c-0.24888,1.98079 -0.50762,3.88194 -0.74651,5.78308c-3.83219,-6.19113 -9.38623,-11.47652 -17.95629,-14.77112c-10.95897,-4.30997 -36.69892,1.24414 -58.82578,21.39028c-15.54753,14.38291 -23.01271,34.09103 -27.25295,52.99296l0.00001,-0.00001zm53.80913,1.16456c5.48445,-23.48056 11.78507,-43.34792 28.10895,-43.34792c10.32188,0 15.75658,9.52556 14.6517,25.76985c-0.87591,4.05116 -1.82149,8.32124 -2.94628,13.14869c-1.63235,6.97753 -3.40409,13.89527 -5.12608,20.82299c-1.75183,4.73787 -3.7923,9.20708 -6.03189,12.1832c-4.20041,5.95224 -14.19383,9.64504 -19.94701,9.64504c-1.63235,0 -11.70542,0 -12.0538,-14.85077c-0.07965,-7.39551 1.44327,-15.01007 3.34441,-23.37107l0,-0.00001zm280.99509,-77.52961l-1.98073,-2.25945c-25.3518,5.13607 -29.94043,5.95224 -53.23185,9.09759l-1.71207,1.712c-0.07959,0.27872 -0.14932,0.70675 -0.26873,1.09489l-0.07965,-0.38814c-17.33912,40.00351 -16.8315,31.37371 -30.94574,62.8669c-0.07959,-1.43328 -0.07959,-2.32911 -0.15924,-3.85203l-3.53356,-68.27176l-2.21962,-2.25945c-26.55619,5.13607 -27.18328,5.95224 -51.70892,9.09759l-1.91113,1.712c-0.26873,0.81624 -0.26873,1.71207 -0.42797,2.68748l0.15924,0.34838c3.0657,15.66701 2.32911,12.17328 5.4048,36.89798c1.43335,12.13345 3.34441,24.33656 4.7777,36.3207c2.41875,20.0565 3.77245,29.9305 6.72865,60.53779c-16.56277,27.3326 -20.48453,37.6744 -36.43019,61.66258l0.10949,0.23889l-11.22764,17.75722c-1.28403,1.87124 -2.44859,3.15527 -4.081,3.70272c-1.79159,0.8859 -4.12076,1.04514 -7.35569,1.04514l-6.22097,0l-9.24691,30.7566l31.72209,0.54745c18.62321,-0.07959 30.32863,-8.78904 36.62925,-20.49445l19.94701,-34.18067l-0.31848,0l2.10021,-2.40876c13.41742,-28.88536 115.48163,-203.96919 115.48163,-203.96919l0.00002,0zm-334.80524,403.94196l-13.45725,0l49.80778,-164.74197l16.52301,0l5.24549,-16.97089l0.50768,18.87203c-0.61717,11.66559 8.56007,22.00739 32.66767,20.29539l27.88004,0l9.59529,-31.72215l-10.49111,0c-6.03183,0 -8.8288,-1.52292 -8.48042,-4.78769l-0.50768,-19.2005l-51.62927,0l0,0.09956c-16.69223,0.34838 -66.53984,1.60251 -76.63276,4.28999c-12.2131,3.14535 -25.08314,12.40218 -25.08314,12.40218l5.05648,-16.9908l-48.29491,0l-10.06308,33.71287l-50.47471,167.26029l-9.79435,0l-9.60521,31.49319l96.19163,0l-3.225,10.50104l47.39902,0l3.14535,-10.50104l13.29807,0l10.42139,-34.0115l-0.00001,0zm-39.46605,-131.26805c-7.73391,2.14003 -22.1268,8.6298 -22.1268,8.6298l12.80031,-42.10371l38.37116,0l-9.25689,30.67695c0,0 -11.85473,0.69676 -19.78777,2.79697l-0.00001,-0.00001zm0.73659,60.14964c0,0 -12.0538,1.51294 -19.98683,3.30459c-7.81356,2.36894 -22.46526,9.83411 -22.46526,9.83411l13.21835,-43.81571l38.57022,0l-9.33648,30.67701zm-21.49977,71.50662l-38.49057,0l11.15797,-36.97763l38.37116,0l-11.03856,36.97763zm92.69386,-102.18363l55.48137,0l-7.9728,25.81966l-56.21796,0l-8.44066,28.22836l49.19067,0l-37.24636,52.44551c-2.60783,3.8521 -4.94693,5.21572 -7.54477,6.30062c-2.60789,1.32386 -6.03189,2.87662 -9.99342,2.87662l-13.64639,0l-9.37631,30.9159l35.6936,0c18.55349,0 29.51239,-8.44066 37.60467,-19.51904l25.54095,-34.95701l5.48445,35.49454c1.16456,6.649 5.94232,10.54086 9.17724,12.0538c3.57332,1.79165 7.26611,4.86734 12.48183,5.32514c5.59387,0.23889 9.63505,0.42803 12.32253,0.42803l17.53825,0l10.53087,-34.59871l-6.91773,0c-3.97151,0 -10.80959,-0.66692 -11.97415,-1.91107c-1.16462,-1.513 -1.16462,-3.84211 -1.79165,-7.38559l-5.5641,-35.57419l-22.7838,0l9.99342,-11.89456l56.10847,0l8.62973,-28.22836l-51.94782,0l8.09228,-25.81966l51.78858,0l9.60527,-31.84157l-154.4003,0l-9.44597,31.84157l0.00001,0.00001zm-468.59757,109.37316l12.94963,-43.07919l53.22192,0l9.72469,-32.04063l-53.27167,0l8.1321,-26.51642l52.0573,0l9.64504,-31.02539l-130.25281,0l-9.44597,31.02539l29.59204,0l-7.89315,26.51642l-29.6717,0l-9.83418,32.58808l29.58212,0l-17.25953,56.99431c-2.32917,7.54483 1.09489,10.42139 3.26476,13.9251c2.21962,3.41408 4.46914,5.67352 9.52556,6.95756c5.21572,1.16456 8.78904,1.86132 13.64639,1.86132l60.00033,0l10.69018,-35.49454l-26.59601,3.65297c-5.13607,0 -19.3598,-0.61711 -17.80704,-5.36497l0,-0.00001zm6.10457,-206.22665l-13.48715,24.37633c-2.88654,5.32521 -5.48438,8.6298 -7.82348,10.15272c-2.06045,1.28397 -6.14138,1.82149 -12.05386,1.82149l-7.03715,0l-9.40615,31.18463l23.37101,0c11.23762,0 19.86742,-4.12083 23.98818,-6.18121c4.42938,-2.36894 5.59394,-1.01524 9.01794,-4.31983l7.89321,-6.83814l72.97979,0l9.68486,-32.46867l-53.42099,0l9.32656,-17.72732l-53.03278,0l0.00001,0zm107.74177,206.85273c-1.24421,-1.79165 -0.34838,-4.94699 1.55276,-11.51634l19.94701,-66.02223l70.95917,0c10.3418,-0.14932 17.80704,-0.26873 22.66439,-0.61711c5.21565,-0.54745 10.88924,-2.40876 17.07039,-5.75318c6.38027,-3.50365 9.64504,-7.19645 12.40218,-11.43669c3.07569,-4.23025 8.01269,-13.48715 12.25293,-27.76057l25.07309,-83.55056l-73.63673,0.42803c0,0 -22.67431,3.34441 -32.65774,7.03715c-10.07307,4.12083 -24.46597,15.62718 -24.46597,15.62718l6.649,-22.90322l-45.48795,0l-63.68313,211.2054c-2.25945,8.20176 -3.77238,14.15407 -4.12076,17.72739c-0.11948,3.85203 4.85735,7.66424 8.08229,10.54086c3.81227,2.87662 9.44597,2.40876 14.85077,2.87662c5.68351,0.42797 13.76586,0.6967 24.92384,0.6967l34.95701,0l10.73,-36.23106l-31.29412,2.95621c-3.34441,0 -5.7631,-1.79165 -6.76842,-3.30459l-0.00001,0.00001zm34.36974,-122.1307l74.53255,0l-4.73787,14.85077c-0.66692,0.34838 -2.25951,-0.73659 -9.8441,0.15924l-64.5392,0l4.58862,-15.01001zm14.93042,-49.80778l75.15965,0l-5.40486,17.88663c0,0 -35.42481,-0.34838 -41.0984,0.6967c-24.9636,4.31989 -39.54564,17.65772 -39.54564,17.65772l10.88924,-36.24105l0.00001,0zm56.53247,114.38975c-0.61711,2.21962 -1.59259,3.57332 -2.95621,4.58862c-1.513,0.97541 -3.96152,1.32379 -7.61449,1.32379l-10.62051,0l0.6271,-18.08569l-44.17408,0l-1.79165,88.41783c-0.06966,6.38027 0.54745,10.07307 5.21565,13.02928c4.66827,3.69279 19.05118,4.16059 38.41098,4.16059l27.68091,0l9.99342,-33.0957l-24.09767,1.32379l-8.01262,0.46786c-1.09489,-0.46786 -2.14003,-0.89583 -3.30459,-2.06038c-1.0153,-1.00532 -2.72731,-0.38821 -2.44859,-6.76848l0.18914,-22.66432l25.27215,-1.04514c13.64639,0 19.47921,-4.43931 24.45598,-8.66962c4.74792,-4.0511 6.30069,-8.70938 8.09234,-15.01001l4.24024,-20.06649l-34.72818,0l-4.42932,14.15407z"/>
</g>
<g>
<path fill="#027AFF" d="m2807.02822,645.0451c88.6931,-161.2648 120.9466,-314.4572 120.9466,-314.4572l-16.1292,0l0,0l-137.0695,0l-145.1341,0l0,-112.8884l354.7738,0l0,-48.3749l-354.7737,0.0001l0,-169.3247l-161.2585,0l0,169.3247l-322.5202,0l0,48.3749l322.5202,0l0,112.8884l-274.1438,-0.0001l0,48.3765l556.3489,0c0,8.0646 0,8.0646 -8.0646,16.1229c0,56.441 -40.3119,137.0742 -72.5639,201.5751c-411.2148,-161.2601 -532.163,-64.5009 -564.415,-48.3781c-274.139,193.5106 -16.1213,435.4054 24.1953,427.3409c290.2697,64.504 475.7141,-56.441 604.7254,-209.6413c8.0583,8.0662 16.1229,8.0662 24.1874,8.0662c88.6931,48.3749 516.0323,249.95 516.0323,249.95l0,-241.8855c-64.5072,0 -298.3343,-80.6316 -467.6574,-137.0695l0,0zm-209.6381,72.5639c-201.5751,258.0162 -443.4605,177.3861 -483.7787,161.2554c-96.7513,-24.1874 -129.0049,-201.5751 -8.0646,-258.0162c201.5751,-64.4993 378.9628,8.0646 507.9724,72.5702c-8.0661,16.126 -16.1291,24.1906 -16.1291,24.1906l0,0zm0,0"  />
</g>
<g>
<path fill="#1AAD19" d="m3932.3736,644.7333c-67.5765,36.9912 -77.6053,-20.7665 -77.6053,-20.7665l-84.6675,-194.1446c-32.5806,-92.2548 28.1963,-41.6118 28.1963,-41.6118s52.1657,38.7764 91.7297,62.4046c39.564,23.6281 84.6675,6.9309 84.6675,6.9309l553.6075,-251.0359c-102.1525,-124.8616 -270.8837,-206.51 -461.9042,-206.51c-311.734,0 -564.3976,217.2739 -564.3976,485.2959c0,154.1605 83.6699,291.3875 213.9922,380.3081l-23.4969,132.7377s-11.4465,38.7764 28.2488,20.7928c27.0674,-12.2604 96.0353,-56.1825 137.0958,-82.8823a643.4732,643.4732 0 0 0 208.6103,34.3921c311.7078,0 564.4502,-217.3002 564.4502,-485.3221c0,-77.6316 -21.2653,-150.9576 -59.0179,-216.0138c-176.3972,104.2264 -586.6344,346.5199 -639.5351,375.425l0.0262,-0.0001z"  />
</g>
</svg>
